# Blender v3.5.0 OBJ File: ''
# www.blender.org
mtllib block.mtl
o Cube
v 0.750000 -0.750000 1.000000
v 0.750000 -1.000000 0.750000
v 1.000000 -0.750000 0.750000
v 0.750000 1.000000 0.750000
v 0.750000 0.750000 1.000000
v 1.000000 0.750000 0.750000
v 1.000000 -0.750000 -0.750000
v 0.750000 -1.000000 -0.750000
v 0.750000 -0.750000 -1.000000
v 1.000000 0.750000 -0.750000
v 0.750000 0.750000 -1.000000
v 0.750000 1.000000 -0.750000
v -0.750000 -0.750000 1.000000
v -1.000000 -0.750000 0.750000
v -0.750000 -1.000000 0.750000
v -1.000000 0.750000 0.750000
v -0.750000 0.750000 1.000000
v -0.750000 1.000000 0.750000
v -1.000000 -0.750000 -0.750000
v -0.750000 -0.750000 -1.000000
v -0.750000 -1.000000 -0.750000
v -0.750000 1.000000 -0.750000
v -0.750000 0.750000 -1.000000
v -1.000000 0.750000 -0.750000
vt 0.291428 0.715578
vt 0.228056 0.778950
vt 0.228056 0.715578
vt 0.823190 0.585649
vt 0.759818 0.649021
vt 0.759818 0.585649
vt 0.823190 0.839136
vt 0.759818 0.902508
vt 0.759818 0.839136
vt 0.907686 0.754641
vt 0.844314 0.818012
vt 0.844314 0.754641
vt 0.823190 0.754641
vt 0.759818 0.818012
vt 0.759818 0.754641
vt 0.392076 0.172204
vt 0.393613 0.162987
vt 0.401293 0.173741
vt 0.200828 0.842141
vt 0.200828 0.832797
vt 0.210172 0.842141
vt 0.475028 0.186037
vt 0.485781 0.178357
vt 0.484244 0.187574
vt 0.210172 0.898205
vt 0.200828 0.907550
vt 0.200828 0.898205
vt 0.327559 0.161445
vt 0.318342 0.159908
vt 0.319879 0.150692
vt 0.135419 0.842141
vt 0.144763 0.832797
vt 0.144763 0.842141
vt 0.263041 0.150686
vt 0.253825 0.149149
vt 0.264578 0.141470
vt 0.144763 0.898205
vt 0.144763 0.907550
vt 0.135419 0.898205
vt 0.401288 0.230579
vt 0.410510 0.175278
vt 0.253820 0.205987
vt 0.244603 0.204450
vt 0.475022 0.242875
vt 0.465811 0.184500
vt 0.327554 0.218283
vt 0.336776 0.162982
vt 0.541082 0.187579
vt 0.468885 0.166067
vt 0.413584 0.156845
vt 0.338313 0.153766
vt 0.219516 0.898205
vt 0.823190 0.670145
vt 0.759818 0.733517
vt 0.759818 0.670145
vt 0.291428 0.778950
vt 0.823190 0.649021
vt 0.823190 0.902508
vt 0.907686 0.818012
vt 0.823190 0.818012
vt 0.382854 0.227505
vt 0.456589 0.239801
vt 0.309120 0.215209
vt 0.539545 0.196796
vt 0.219516 0.842141
vt 0.823190 0.733517
vn 0.0000 1.0000 0.0000
vn -1.0000 0.0000 0.0000
vn 0.0000 0.0000 -1.0000
vn 0.0000 -1.0000 0.0000
vn 1.0000 0.0000 0.0000
vn 0.5774 -0.5774 0.5774
vn 0.5774 0.5774 0.5774
vn 0.5774 -0.5774 -0.5774
vn 0.5774 0.5774 -0.5774
vn -0.5774 -0.5774 0.5774
vn -0.5774 0.5774 0.5774
vn -0.5774 -0.5774 -0.5774
vn -0.5774 0.5774 -0.5774
vn -0.7071 0.7071 0.0000
vn 0.0000 0.7071 0.7071
vn 0.7071 0.0000 0.7071
vn -0.7071 0.0000 -0.7071
vn 0.7071 0.0000 -0.7071
vn -0.7071 0.0000 0.7071
vn 0.0000 -0.7071 -0.7071
vn 0.7071 -0.7071 0.0000
vn 0.0000 0.7071 -0.7071
vn -0.7071 -0.7071 0.0000
vn 0.0000 -0.7071 0.7071
vn 0.7071 0.7071 0.0000
vn 0.0000 0.0000 1.0000
usemtl Material
s off
f 4/1/1 22/2/1 18/3/1
f 19/4/2 16/5/2 24/6/2
f 9/7/3 23/8/3 11/9/3
f 15/10/4 8/11/4 2/12/4
f 3/13/5 10/14/5 6/15/5
f 1/16/6 2/17/6 3/18/6
f 4/19/7 5/20/7 6/21/7
f 7/22/8 8/23/8 9/24/8
f 10/25/9 11/26/9 12/27/9
f 13/28/10 14/29/10 15/30/10
f 16/31/11 17/32/11 18/33/11
f 19/34/12 20/35/12 21/36/12
f 22/37/13 23/38/13 24/39/13
f 22/37/14 16/31/14 18/33/14
f 18/33/15 5/20/15 4/19/15
f 6/40/16 1/16/16 3/41/16
f 20/35/17 24/42/17 23/43/17
f 11/44/18 7/45/18 9/24/18
f 17/46/19 14/29/19 13/47/19
f 21/48/20 9/24/20 8/23/20
f 8/49/21 3/41/21 2/50/21
f 12/27/22 23/38/22 22/37/22
f 15/30/23 19/34/23 21/36/23
f 2/17/24 13/47/24 15/51/24
f 4/19/25 10/52/25 12/27/25
f 13/53/26 5/54/26 17/55/26
f 4/1/1 12/56/1 22/2/1
f 19/4/2 14/57/2 16/5/2
f 9/7/3 20/58/3 23/8/3
f 15/10/4 21/59/4 8/11/4
f 3/13/5 7/60/5 10/14/5
f 22/37/14 24/39/14 16/31/14
f 18/33/15 17/32/15 5/20/15
f 6/40/16 5/61/16 1/16/16
f 20/35/17 19/34/17 24/42/17
f 11/44/18 10/62/18 7/45/18
f 17/46/19 16/63/19 14/29/19
f 21/48/20 20/64/20 9/24/20
f 8/49/21 7/45/21 3/41/21
f 12/27/22 11/26/22 23/38/22
f 15/30/23 14/29/23 19/34/23
f 2/17/24 1/16/24 13/47/24
f 4/19/25 6/65/25 10/52/25
f 13/53/26 1/66/26 5/54/26
