# Blender v3.5.0 OBJ File: 'PlayerBody.blend'
# www.blender.org
mtllib PlayerBall.mtl
o 立方体_立方体.006
v 0.210401 -0.445029 -0.210401
v 0.210401 -0.210401 -0.445029
v 0.445029 -0.210401 -0.210401
v 0.210401 0.210401 -0.445029
v 0.210401 0.445029 -0.210401
v 0.445029 0.210401 -0.210401
v 0.210401 -0.445029 0.210401
v 0.445029 -0.210401 0.210401
v 0.210401 -0.210401 0.445029
v 0.210401 0.445029 0.210401
v 0.210401 0.210401 0.445029
v 0.445029 0.210401 0.210401
v -0.210401 -0.445029 -0.210401
v -0.445029 -0.210401 -0.210401
v -0.210401 -0.210401 -0.445029
v -0.210401 0.445029 -0.210401
v -0.210401 0.210401 -0.445029
v -0.445029 0.210401 -0.210401
v -0.210401 -0.445029 0.210401
v -0.210401 -0.210401 0.445029
v -0.445029 -0.210401 0.210401
v -0.210401 0.445029 0.210401
v -0.445029 0.210401 0.210401
v -0.210401 0.210401 0.445029
vt 0.890694 0.156729
vt 0.878184 0.169240
vt 0.878184 0.156729
vt 0.890694 0.130268
vt 0.878184 0.142778
vt 0.878184 0.130268
vt 0.917155 0.130268
vt 0.904645 0.142778
vt 0.904645 0.130268
vt 0.890694 0.077345
vt 0.878184 0.089856
vt 0.878184 0.077345
vt 0.890694 0.103807
vt 0.878184 0.116317
vt 0.878184 0.103807
vt 0.851722 0.142778
vt 0.851722 0.149754
vt 0.844747 0.142778
vt 0.890694 0.070370
vt 0.897670 0.077345
vt 0.851722 0.130268
vt 0.844747 0.130268
vt 0.851722 0.123293
vt 0.897670 0.089856
vt 0.890694 0.096831
vt 0.890694 0.089856
vt 0.864233 0.142778
vt 0.871208 0.142778
vt 0.864233 0.149754
vt 0.897670 0.156729
vt 0.890694 0.149754
vt 0.864233 0.130268
vt 0.864233 0.123293
vt 0.871208 0.130268
vt 0.897670 0.116317
vt 0.890694 0.123293
vt 0.890694 0.116317
vt 0.878184 0.070370
vt 0.897670 0.103807
vt 0.890694 0.142778
vt 0.897670 0.169240
vt 0.890694 0.169240
vt 0.917155 0.142778
vn 0.0000 0.0000 -1.0000
vn -1.0000 0.0000 0.0000
vn 0.0000 1.0000 0.0000
vn 1.0000 0.0000 0.0000
vn 0.0000 0.0000 1.0000
vn 0.5774 -0.5774 -0.5774
vn 0.5774 0.5774 -0.5774
vn 0.5774 -0.5774 0.5774
vn 0.5774 0.5774 0.5774
vn -0.5774 -0.5774 -0.5774
vn -0.5774 0.5774 -0.5774
vn -0.5774 -0.5774 0.5774
vn -0.5774 0.5774 0.5774
vn 0.7071 -0.7071 0.0000
vn 0.7071 0.0000 -0.7071
vn 0.7071 0.7071 0.0000
vn 0.7071 0.0000 0.7071
vn 0.0000 -0.7071 0.7071
vn 0.0000 0.7071 0.7071
vn -0.7071 0.0000 0.7071
vn -0.7071 -0.7071 0.0000
vn -0.7071 0.7071 0.0000
vn -0.7071 0.0000 -0.7071
vn 0.0000 -0.7071 -0.7071
vn 0.0000 0.7071 -0.7071
vn 0.0000 -1.0000 0.0000
usemtl マテリアル
s off
f 17/1/1 2/2/1 15/3/1
f 23/4/2 14/5/2 21/6/2
f 10/7/3 16/8/3 22/9/3
f 6/10/4 8/11/4 3/12/4
f 11/13/5 20/14/5 9/15/5
f 1/16/6 2/17/6 3/18/6
f 4/19/7 5/20/7 6/10/7
f 7/21/8 8/22/8 9/23/8
f 10/24/9 11/25/9 12/26/9
f 13/27/10 14/28/10 15/29/10
f 16/30/11 17/1/11 18/31/11
f 19/32/12 20/33/12 21/34/12
f 22/35/13 23/36/13 24/37/13
f 1/16/14 8/22/14 7/21/14
f 4/19/15 3/12/15 2/38/15
f 10/24/16 6/10/16 5/20/16
f 9/15/17 12/26/17 11/13/17
f 7/21/18 20/33/18 19/32/18
f 22/35/19 11/13/19 10/39/19
f 21/6/20 24/37/20 23/4/20
f 19/32/21 14/5/21 13/27/21
f 16/8/22 23/4/22 22/9/22
f 15/3/23 18/40/23 17/1/23
f 13/27/24 2/17/24 1/16/24
f 5/41/25 17/1/25 16/30/25
f 19/32/26 1/16/26 7/21/26
f 17/1/1 4/42/1 2/2/1
f 23/4/2 18/40/2 14/5/2
f 10/7/3 5/43/3 16/8/3
f 6/10/4 12/26/4 8/11/4
f 11/13/5 24/37/5 20/14/5
f 1/16/14 3/18/14 8/22/14
f 4/19/15 6/10/15 3/12/15
f 10/24/16 12/26/16 6/10/16
f 9/15/17 8/11/17 12/26/17
f 7/21/18 9/23/18 20/33/18
f 22/35/19 24/37/19 11/13/19
f 21/6/20 20/14/20 24/37/20
f 19/32/21 21/6/21 14/5/21
f 16/8/22 18/40/22 23/4/22
f 15/3/23 14/5/23 18/40/23
f 13/27/24 15/29/24 2/17/24
f 5/41/25 4/42/25 17/1/25
f 19/32/26 13/27/26 1/16/26
