# Blender v3.5.0 OBJ File: 'PlayerBody.blend'
# www.blender.org
mtllib PlayerAntena.mtl
o アンテナ_立方体.003
v 0.229864 -0.196782 -0.631680
v 0.229864 -0.196782 0.631680
v -0.229864 -0.196782 -0.631680
v -0.229864 -0.196782 0.631680
v 0.229864 0.196782 -0.631680
v 0.229864 0.196782 0.631680
v -0.229864 0.196782 -0.631680
v -0.229864 0.196782 0.631680
vt 0.096844 0.249287
vt 0.081552 0.264580
vt 0.081552 0.249287
vt 0.096844 0.264580
vt 0.081552 0.279872
vt 0.096844 0.279872
vt 0.081552 0.295165
vt 0.096844 0.295165
vt 0.081552 0.310457
vt 0.066259 0.295165
vt 0.066259 0.279872
vt 0.112137 0.279872
vt 0.096844 0.310457
vt 0.112137 0.295165
vn 0.0000 -1.0000 0.0000
vn -1.0000 0.0000 0.0000
vn 0.0000 1.0000 0.0000
vn 1.0000 0.0000 0.0000
vn 0.0000 0.0000 -1.0000
vn 0.0000 0.0000 1.0000
usemtl マテリアル.007
s off
f 2/1/1 3/2/1 1/3/1
f 4/4/2 7/5/2 3/2/2
f 8/6/3 5/7/3 7/5/3
f 6/8/4 1/9/4 5/7/4
f 7/5/5 1/10/5 3/11/5
f 4/12/6 6/8/6 8/6/6
f 2/1/1 4/4/1 3/2/1
f 4/4/2 8/6/2 7/5/2
f 8/6/3 6/8/3 5/7/3
f 6/8/4 2/13/4 1/9/4
f 7/5/5 5/7/5 1/10/5
f 4/12/6 2/14/6 6/8/6
