# Blender v3.5.0 OBJ File: 'enemy.blend'
# www.blender.org
mtllib bullet.mtl
o 弾_Cube
v 1.081694 0.000000 0.000000
v -0.026002 -0.269294 -0.000000
v -0.918306 0.500000 0.500000
v -0.295297 -0.000000 -0.000000
v -0.026002 -0.000000 -0.269294
v -0.594637 0.000000 0.000000
v -0.918306 -0.500000 0.500000
v -0.295297 0.000000 -0.000000
v -0.918306 0.500000 -0.500000
v -0.026002 0.269294 -0.000000
v -0.594637 0.000000 0.000000
v -0.026002 0.000000 -0.269294
v -0.026002 -0.269294 -0.000000
v -0.918306 -0.500000 -0.500000
v -0.026002 -0.000000 -0.269294
v 0.558843 -0.000000 -0.000000
v 0.243292 -0.000000 -0.000000
v 0.558843 0.000000 -0.000000
v -0.026002 0.269294 -0.000000
v 0.243292 0.000000 -0.000000
v -0.026002 0.000000 -0.269294
v 0.558843 -0.000000 0.000000
v -0.026002 -0.269294 0.000000
v 0.558843 0.000000 0.000000
v 0.384560 0.174283 -0.000000
v -0.026002 -0.000000 0.269294
v -0.295297 -0.000000 0.000000
v -0.366847 0.362135 -0.000000
v -0.125424 0.301779 -0.301779
v -0.026002 0.269294 0.000000
v -0.295297 0.000000 0.000000
v 0.035994 0.261425 -0.261425
v -0.026002 0.000000 0.269294
v -0.125424 0.301779 0.301779
v -0.366847 0.362135 0.000000
v -0.026002 -0.269294 0.000000
v 0.035994 0.261425 0.261425
v 0.243292 -0.000000 0.000000
v -0.026002 -0.000000 0.269294
v 0.384560 0.174283 0.000000
v -0.026002 0.269294 0.000000
v -0.366847 -0.000000 -0.362135
v -0.026002 0.000000 0.269294
v -0.125424 -0.301779 -0.301779
v -0.366847 0.000000 -0.362135
v 0.243292 0.000000 0.000000
v 0.384560 -0.000000 -0.174283
v 0.384560 0.000000 -0.174283
v 0.035994 -0.261425 -0.261425
v 0.384560 -0.174283 -0.000000
v -0.366847 -0.362135 -0.000000
v -0.366847 -0.362135 0.000000
v -0.125424 -0.301779 0.301779
v 0.035994 -0.261425 0.261425
v 0.384560 -0.174283 0.000000
v -0.366847 -0.000000 0.362135
v -0.366847 0.000000 0.362135
v 0.384560 -0.000000 0.174283
v 0.384560 0.000000 0.174283
v -0.771806 0.000000 0.000000
v -0.771806 -0.278065 0.000000
v -0.771806 -0.011538 0.330618
v -0.771806 -0.011367 -0.330618
v -0.771806 0.278065 -0.001156
vt 0.742552 0.863111
vt 0.744758 0.858661
vt 0.744758 0.858661
vt 0.750603 0.846970
vt 0.747790 0.852597
vt 0.747790 0.852597
vt 0.736923 0.594886
vt 0.728853 0.602956
vt 0.728667 0.594886
vt 0.724167 0.819139
vt 0.726209 0.814689
vt 0.724167 0.819139
vt 0.718322 0.830830
vt 0.721135 0.825203
vt 0.721135 0.825203
vt 0.710251 0.863111
vt 0.712476 0.858661
vt 0.712476 0.858661
vt 0.718322 0.846970
vt 0.715508 0.852597
vt 0.715508 0.852597
vt 0.731649 0.852597
vt 0.734462 0.846970
vt 0.731649 0.852597
vt 0.726206 0.863111
vt 0.728617 0.858661
vt 0.728617 0.858661
vt 0.736923 0.602975
vt 0.000000 0.000000
vt 0.000000 0.000000
vt 0.000000 0.000000
vt 0.775147 0.502000
vt 0.775147 0.502000
vt 0.775147 0.502000
vt 0.775147 0.502000
vt 0.775147 0.502000
vt 0.775147 0.502000
vt 0.775147 0.502000
vt 0.775147 0.502000
vt 0.775147 0.502000
vt 0.775147 0.502000
vt 0.775147 0.502000
vt 0.775147 0.502000
vt 0.775147 0.502000
vt 0.775147 0.502000
vt 0.775147 0.502000
vt 0.775147 0.502000
vt 0.775147 0.502000
vt 0.775147 0.502000
vt 0.775147 0.502000
vt 0.775147 0.502000
vt 0.775147 0.502000
vt 0.775147 0.502000
vt 0.000000 0.000000
vt 0.000000 0.000000
vt 0.000000 0.000000
vt 0.000000 0.000000
vt 0.000000 0.000000
vt 0.000000 0.000000
vt 0.000000 0.000000
vt 0.000000 0.000000
vt 0.000000 0.000000
vt 0.000000 0.000000
vt 0.000000 0.000000
vt 0.000000 0.000000
vt 0.000000 0.000000
vt 0.000000 0.000000
vt 0.000000 0.000000
vt 0.000000 0.000000
vt 0.000000 0.000000
vt 0.000000 0.000000
vt 0.000000 0.000000
vt 0.000000 0.000000
vt 0.465088 0.383882
vt 0.465088 0.383882
vt 0.465088 0.383882
vt 0.000000 0.000000
vt 0.000000 0.000000
vt 0.000000 0.000000
vt 0.465088 0.383882
vt 0.465088 0.383882
vt 0.465088 0.383882
vt 0.000000 0.000000
vt 0.000000 0.000000
vt 0.000000 0.000000
vt 0.465088 0.383882
vt 0.465088 0.383882
vt 0.465088 0.383882
vt 0.465088 0.383882
vt 0.465088 0.383882
vt 0.465088 0.383882
vt 0.465088 0.383882
vt 0.465088 0.383882
vt 0.465088 0.383882
vt 0.465088 0.383882
vt 0.465088 0.383882
vt 0.465088 0.383882
vt 0.465088 0.383882
vt 0.465088 0.383882
vt 0.465088 0.383882
vt 0.465088 0.383882
vt 0.465088 0.383882
vt 0.465088 0.383882
vt 0.000000 0.000000
vt 0.000000 0.000000
vt 0.000000 0.000000
vt 0.000000 0.000000
vt 0.000000 0.000000
vt 0.000000 0.000000
vt 0.720782 0.594886
vt 0.720782 0.602956
vt 0.728669 0.611027
vt 0.720782 0.611027
vt 0.736923 0.611027
vt 0.750603 0.856712
vt 0.750603 0.863111
vt 0.734462 0.863111
vt 0.740861 0.856712
vt 0.750603 0.855410
vt 0.742164 0.855410
vt 0.718322 0.821087
vt 0.718322 0.814689
vt 0.734462 0.814689
vt 0.728064 0.821088
vt 0.726761 0.822390
vt 0.718322 0.822390
vt 0.718322 0.856712
vt 0.718322 0.863111
vt 0.702181 0.863111
vt 0.708580 0.856712
vt 0.709882 0.855410
vt 0.718322 0.855410
vt 0.726023 0.855410
vt 0.734462 0.855410
vt 0.734462 0.856712
vt 0.724720 0.856712
vt 0.775147 0.502000
vt 0.775147 0.502000
vt 0.775147 0.502000
vt 0.775147 0.502000
vt 0.775147 0.502000
vt 0.775147 0.502000
vt 0.775147 0.502000
vt 0.775147 0.502000
vt 0.000000 0.000000
vt 0.000000 0.000000
vt 0.000000 0.000000
vt 0.000000 0.000000
vt 0.000000 0.000000
vt 0.000000 0.000000
vt 0.000000 0.000000
vn -0.2031 0.9792 0.0000
vn 0.2425 0.9701 0.0000
vn -0.9621 -0.2724 -0.0095
vn -0.0695 0.0000 -0.9976
vn 0.2425 0.0000 -0.9701
vn -0.2033 -0.9791 0.0000
vn 0.2425 -0.9701 0.0000
vn 0.2425 0.0000 0.9701
vn -0.0802 0.0000 0.9968
vn -0.9600 -0.0012 -0.2801
vn -1.0000 0.0000 0.0000
vn 0.6663 0.6168 0.4191
vn 0.6663 -0.4191 0.6168
vn -0.5774 0.5774 0.5774
vn -0.5774 -0.5774 0.5774
vn 0.6663 0.4191 -0.6168
vn 0.6663 -0.6168 -0.4191
vn -0.5774 0.5774 -0.5774
vn -0.5774 -0.5774 -0.5774
vn 0.0000 0.0000 1.0000
vn -0.7071 0.0000 0.7071
vn -0.7071 0.7071 0.0000
vn -0.7071 -0.7071 0.0000
vn -0.7071 0.0000 -0.7071
vn 0.8465 0.0000 -0.5324
vn 0.8465 0.5324 0.0000
vn 0.8465 -0.5324 0.0000
vn 0.0000 1.0000 0.0000
vn 0.0000 0.0000 -1.0000
vn 1.0000 0.0000 0.0000
vn 0.5774 -0.5774 -0.5774
vn 0.5774 0.5774 -0.5774
vn 0.5774 -0.5774 0.5774
vn 0.5774 0.5774 0.5774
vn 0.0000 -0.7091 -0.7051
vn 0.0000 0.7091 -0.7051
vn 0.7071 0.0000 -0.7071
vn 0.7071 -0.7071 0.0000
vn 0.7071 0.7071 0.0000
vn 0.7071 0.0000 0.7071
vn 0.0000 -0.7091 0.7051
vn 0.0000 0.7091 0.7051
vn 0.0000 -1.0000 0.0000
vn -0.9597 0.0000 -0.2812
vn -0.9569 0.2903 -0.0100
vn -0.9597 0.0000 0.2812
vn -0.9568 0.2905 0.0101
vn -0.9621 -0.2725 0.0094
vn -0.9593 0.0012 0.2823
vn -0.1905 0.9221 -0.3368
vn 0.1377 0.9193 0.3686
vn 0.1382 0.9199 -0.3670
vn -0.1922 0.9213 0.3380
vn -0.0683 -0.2479 -0.9664
vn 0.1670 0.2778 -0.9460
vn 0.1709 -0.2653 -0.9489
vn -0.0822 0.2582 -0.9626
vn -0.1913 -0.9217 0.3374
vn 0.1380 -0.9196 -0.3678
vn 0.1380 -0.9196 0.3678
vn -0.1913 -0.9217 -0.3374
vn -0.0823 0.2583 0.9625
vn 0.1709 -0.2653 0.9489
vn 0.1670 0.2779 0.9460
vn -0.0682 -0.2478 0.9664
vn 0.6663 0.4191 0.6168
vn 0.6663 -0.6168 0.4191
vn 0.6663 0.6168 -0.4191
vn 0.6663 -0.4191 -0.6168
vn 0.8465 0.0000 0.5324
usemtl Material
s off
f 64/1/1 35/2/1 28/3/1
f 1/4/2 25/5/2 40/6/2
f 3/7/3 60/8/3 62/9/3
f 42/10/4 63/11/4 45/12/4
f 1/13/5 47/14/5 48/15/5
f 61/16/6 51/17/6 52/18/6
f 1/19/7 55/20/7 50/21/7
f 58/22/8 1/23/8 59/24/8
f 62/25/9 56/26/9 57/27/9
f 3/7/10 64/28/10 60/8/10
f 16/29/11 24/30/11 18/31/11
f 6/32/12 44/33/12 42/34/12
f 11/35/13 29/36/13 28/37/13
f 50/38/14 47/39/14 49/40/14
f 25/41/15 48/42/15 18/43/15
f 6/32/16 53/44/16 52/45/16
f 11/35/17 34/46/17 57/47/17
f 55/48/18 58/49/18 22/50/18
f 59/51/19 40/52/19 24/53/19
f 6/54/20 45/55/20 11/56/20
f 16/29/21 48/57/21 47/58/21
f 22/59/22 50/60/22 55/61/22
f 18/31/23 40/62/23 25/63/23
f 22/59/24 59/64/24 24/30/24
f 6/54/25 57/65/25 56/66/25
f 51/67/26 6/54/26 52/68/26
f 11/56/27 28/69/27 35/70/27
f 31/71/11 4/72/11 27/73/11
f 43/74/20 26/75/20 39/76/20
f 19/77/28 30/78/28 41/79/28
f 12/80/29 15/81/29 5/82/29
f 20/83/30 38/84/30 17/85/30
f 5/82/19 2/86/19 4/87/19
f 12/80/18 8/88/18 10/89/18
f 15/81/31 17/90/31 13/91/31
f 21/92/32 19/93/32 20/94/32
f 27/95/15 23/96/15 26/75/15
f 30/97/14 31/98/14 33/99/14
f 38/100/33 39/76/33 36/101/33
f 41/102/34 43/74/34 46/103/34
f 2/86/35 15/81/35 13/91/35
f 8/88/24 5/82/24 4/87/24
f 19/77/36 12/104/36 10/105/36
f 17/90/37 21/92/37 20/94/37
f 13/91/38 38/100/38 36/101/38
f 41/79/39 20/83/39 19/77/39
f 39/76/40 46/103/40 43/74/40
f 36/101/41 26/75/41 23/96/41
f 30/78/42 43/106/42 41/79/42
f 27/95/21 33/99/21 31/98/21
f 23/96/23 4/87/23 2/86/23
f 10/105/22 31/71/22 30/78/22
f 36/107/43 2/108/43 13/109/43
f 7/110/44 60/8/44 61/111/44
f 60/8/45 63/112/45 14/113/45
f 61/111/46 60/8/46 14/113/46
f 62/9/47 60/8/47 7/110/47
f 63/112/48 60/8/48 9/114/48
f 60/8/49 64/28/49 9/114/49
f 28/3/50 29/115/50 64/1/50
f 29/115/51 9/116/51 64/1/51
f 64/1/52 3/117/52 34/118/52
f 64/1/53 34/118/53 35/2/53
f 1/4/2 32/119/2 25/5/2
f 40/6/2 37/120/2 1/4/2
f 42/10/54 44/121/54 63/11/54
f 44/121/55 14/122/55 63/11/55
f 63/11/56 9/123/56 29/124/56
f 63/11/57 29/124/57 45/12/57
f 48/15/5 32/125/5 1/13/5
f 1/13/5 49/126/5 47/14/5
f 52/18/58 53/127/58 61/16/58
f 53/127/59 7/128/59 61/16/59
f 61/16/60 14/129/60 44/130/60
f 61/16/61 44/130/61 51/17/61
f 50/21/7 49/131/7 1/19/7
f 1/19/7 54/132/7 55/20/7
f 58/22/8 54/133/8 1/23/8
f 1/23/8 37/134/8 59/24/8
f 57/27/62 34/135/62 62/25/62
f 34/135/63 3/117/63 62/25/63
f 62/25/64 7/128/64 53/136/64
f 62/25/65 53/136/65 56/26/65
f 16/29/11 22/59/11 24/30/11
f 6/32/66 51/137/66 44/33/66
f 11/35/67 45/138/67 29/36/67
f 50/38/14 16/139/14 47/39/14
f 25/41/15 32/140/15 48/42/15
f 6/32/68 56/141/68 53/44/68
f 11/35/69 35/142/69 34/46/69
f 55/48/18 54/143/18 58/49/18
f 59/51/19 37/144/19 40/52/19
f 6/54/70 42/145/70 45/55/70
f 16/29/21 18/31/21 48/57/21
f 22/59/22 16/29/22 50/60/22
f 18/31/23 24/30/23 40/62/23
f 22/59/24 58/146/24 59/64/24
f 6/54/20 11/56/20 57/65/20
f 31/71/11 8/147/11 4/72/11
f 43/74/20 33/99/20 26/75/20
f 19/77/28 10/105/28 30/78/28
f 12/80/29 21/92/29 15/81/29
f 20/83/30 46/148/30 38/84/30
f 2/86/35 5/82/35 15/81/35
f 8/88/24 12/80/24 5/82/24
f 19/77/36 21/149/36 12/104/36
f 17/90/37 15/81/37 21/92/37
f 13/91/38 17/90/38 38/100/38
f 41/79/39 46/148/39 20/83/39
f 39/76/40 38/100/40 46/103/40
f 36/101/41 39/76/41 26/75/41
f 30/78/42 33/150/42 43/106/42
f 27/95/21 26/75/21 33/99/21
f 23/96/23 27/95/23 4/87/23
f 10/105/22 8/147/22 31/71/22
f 36/107/43 23/151/43 2/108/43
