# Blender v3.5.0 OBJ File: 'enemy.blend'
# www.blender.org
mtllib revese.mtl
o 反射_立方体.001
v -0.000000 -1.000000 -0.000000
v -1.000000 -0.000000 -0.000000
v -0.000000 -0.000000 -1.000000
v -1.000000 0.000000 -0.000000
v -0.000000 1.000000 -0.000000
v -0.000000 0.000000 -1.000000
v 0.000000 -1.000000 -0.000000
v 0.000000 -0.000000 -1.000000
v 1.000000 -0.000000 -0.000000
v 0.000000 1.000000 -0.000000
v 1.000000 0.000000 -0.000000
v 0.000000 0.000000 -1.000000
v -0.000000 -1.000000 0.000000
v -0.000000 -0.000000 1.000000
v -1.000000 -0.000000 0.000000
v -0.000000 1.000000 0.000000
v -1.000000 0.000000 0.000000
v -0.000000 0.000000 1.000000
v 0.000000 -1.000000 0.000000
v 1.000000 -0.000000 0.000000
v 0.000000 -0.000000 1.000000
v 0.000000 1.000000 0.000000
v 0.000000 0.000000 1.000000
v 1.000000 0.000000 0.000000
vt 0.500000 0.875000
vt 0.500000 0.875000
vt 0.500000 0.875000
vt 0.500000 0.625000
vt 0.500000 0.625000
vt 0.500000 0.625000
vt 0.750000 0.625000
vt 0.750000 0.625000
vt 0.750000 0.625000
vt 0.500000 0.125000
vt 0.500000 0.125000
vt 0.500000 0.125000
vt 0.500000 0.375000
vt 0.500000 0.375000
vt 0.500000 0.375000
vt 0.344803 0.435394
vt 0.344803 0.465591
vt 0.314606 0.435394
vt 0.405197 0.284409
vt 0.435394 0.314606
vt 0.405197 0.314606
vt 0.344803 0.435394
vt 0.314606 0.435394
vt 0.344803 0.405197
vt 0.435394 0.375000
vt 0.405197 0.375000
vt 0.405197 0.344803
vt 0.344803 0.435394
vt 0.375000 0.435394
vt 0.344803 0.465591
vt 0.435394 0.435394
vt 0.405197 0.465591
vt 0.405197 0.435394
vt 0.344803 0.435394
vt 0.344803 0.405197
vt 0.375000 0.435394
vt 0.435394 0.375000
vt 0.405197 0.405197
vt 0.405197 0.375000
vt 0.250000 0.625000
vt 0.125000 0.625000
vt 0.250000 0.625000
vt 0.500000 0.000000
vt 0.500000 0.000000
vt 0.625000 0.125000
vt 0.625000 0.125000
vt 0.500000 0.125000
vt 0.250000 0.500000
vt 0.250000 0.625000
vt 0.625000 0.375000
vt 0.625000 0.375000
vt 0.500000 0.375000
vt 0.250000 0.625000
vt 0.500000 0.625000
vt 0.250000 0.750000
vt 0.625000 0.875000
vt 0.625000 0.875000
vt 0.500000 0.875000
vt 0.750000 0.625000
vt 0.125000 0.625000
vt 0.250000 0.500000
vt 0.250000 0.750000
vn -1.0000 0.0000 0.0000
vn 0.0000 0.0000 1.0000
vn 0.0000 1.0000 0.0000
vn 0.0000 0.0000 -1.0000
vn 1.0000 0.0000 0.0000
vn -0.5774 -0.5774 -0.5774
vn -0.5774 0.5774 -0.5774
vn 0.5774 -0.5774 -0.5774
vn 0.5774 0.5774 -0.5774
vn -0.5774 -0.5774 0.5774
vn -0.5774 0.5774 0.5774
vn 0.5774 -0.5774 0.5774
vn 0.5774 0.5774 0.5774
vn 0.0000 -0.7071 -0.7071
vn -0.7071 0.0000 -0.7071
vn 0.0000 0.7071 -0.7071
vn 0.7071 0.0000 -0.7071
vn 0.7071 -0.7071 0.0000
vn 0.7071 0.7071 0.0000
vn 0.7071 0.0000 0.7071
vn 0.0000 -0.7071 0.7071
vn 0.0000 0.7071 0.7071
vn -0.7071 0.0000 0.7071
vn -0.7071 -0.7071 0.0000
vn -0.7071 0.7071 0.0000
vn 0.0000 -1.0000 0.0000
usemtl Material
s off
f 17/1/1 2/2/1 15/3/1
f 23/4/2 14/5/2 21/6/2
f 10/7/3 16/8/3 22/9/3
f 6/10/4 8/11/4 3/12/4
f 11/13/5 20/14/5 9/15/5
f 1/16/6 2/17/6 3/18/6
f 4/19/7 5/20/7 6/21/7
f 7/22/8 8/23/8 9/24/8
f 10/25/9 11/26/9 12/27/9
f 13/28/10 14/29/10 15/30/10
f 16/31/11 17/32/11 18/33/11
f 19/34/12 20/35/12 21/36/12
f 22/37/13 23/38/13 24/39/13
f 1/40/14 8/41/14 7/42/14
f 4/43/15 3/12/15 2/44/15
f 10/45/16 6/10/16 5/46/16
f 9/15/17 12/47/17 11/13/17
f 7/42/18 20/48/18 19/49/18
f 22/50/19 11/13/19 10/51/19
f 21/6/20 24/52/20 23/4/20
f 19/49/21 14/5/21 13/53/21
f 16/8/22 23/4/22 22/9/22
f 15/3/23 18/54/23 17/1/23
f 13/53/24 2/55/24 1/40/24
f 5/56/25 17/1/25 16/57/25
f 19/49/26 1/40/26 7/42/26
f 17/1/1 4/58/1 2/2/1
f 23/4/2 18/54/2 14/5/2
f 10/7/3 5/59/3 16/8/3
f 6/10/4 12/47/4 8/11/4
f 11/13/5 24/52/5 20/14/5
f 1/40/14 3/60/14 8/41/14
f 4/43/15 6/10/15 3/12/15
f 10/45/16 12/47/16 6/10/16
f 9/15/17 8/11/17 12/47/17
f 7/42/18 9/61/18 20/48/18
f 22/50/19 24/52/19 11/13/19
f 21/6/20 20/14/20 24/52/20
f 19/49/21 21/6/21 14/5/21
f 16/8/22 18/54/22 23/4/22
f 15/3/23 14/5/23 18/54/23
f 13/53/24 15/62/24 2/55/24
f 5/56/25 4/58/25 17/1/25
f 19/49/26 13/53/26 1/40/26
