# Blender v3.5.0 OBJ File: 'enemy.blend'
# www.blender.org
mtllib targetBall.mtl
o 自機狙いボール_立方体.005
v -0.686022 -0.686022 0.000000
v -0.686022 0.000000 -0.686022
v 0.000000 -0.686022 -0.686022
v -0.686022 0.686022 0.000000
v 0.000000 0.686022 -0.686022
v -0.686022 0.000000 -0.686022
v 0.000000 -0.686022 -0.686022
v 0.686022 0.000000 -0.686022
v 0.686022 -0.686022 0.000000
v 0.686022 0.686022 0.000000
v 0.686022 0.000000 -0.686022
v 0.000000 0.686022 -0.686022
v 0.000000 -0.686022 0.686022
v -0.686022 0.000000 0.686022
v -0.686022 -0.686022 0.000000
v -0.686022 0.686022 0.000000
v -0.686022 0.000000 0.686022
v 0.000000 0.686022 0.686022
v 0.686022 -0.686022 0.000000
v 0.686022 0.000000 0.686022
v 0.000000 -0.686022 0.686022
v 0.000000 0.686022 0.686022
v 0.686022 0.000000 0.686022
v 0.686022 0.686022 0.000000
v -0.150000 -1.000000 -0.150000
v -1.000000 -0.150000 -0.150000
v -0.150000 -0.150000 -1.000000
v -1.000000 0.150000 -0.150000
v -0.150000 1.000000 -0.150000
v -0.150000 0.150000 -1.000000
v 0.150000 -1.000000 -0.150000
v 0.150000 -0.150000 -1.000000
v 1.000000 -0.150000 -0.150000
v 0.150000 1.000000 -0.150000
v 1.000000 0.150000 -0.150000
v 0.150000 0.150000 -1.000000
v -0.150000 -1.000000 0.150000
v -0.150000 -0.150000 1.000000
v -1.000000 -0.150000 0.150000
v -0.150000 1.000000 0.150000
v -1.000000 0.150000 0.150000
v -0.150000 0.150000 1.000000
v 0.150000 -1.000000 0.150000
v 1.000000 -0.150000 0.150000
v 0.150000 -0.150000 1.000000
v 0.150000 1.000000 0.150000
v 0.150000 0.150000 1.000000
v 1.000000 0.150000 0.150000
v -0.463978 -0.150000 -0.686022
v -0.150000 -0.463978 -0.686022
v -0.463978 -0.686022 -0.150000
v -0.150000 -0.686022 -0.463978
v -0.686022 -0.463978 -0.150000
v -0.686022 -0.150000 -0.463978
v -0.463978 0.150000 -0.686022
v -0.150000 0.463978 -0.686022
v -0.463978 0.686022 -0.150000
v -0.150000 0.686022 -0.463978
v -0.686022 0.463978 -0.150000
v -0.686022 0.150000 -0.463978
v 0.150000 -0.686022 -0.463978
v 0.463978 -0.150000 -0.686022
v 0.150000 -0.463978 -0.686022
v 0.463978 -0.686022 -0.150000
v 0.686022 -0.463978 -0.150000
v 0.686022 -0.150000 -0.463978
v 0.150000 0.686022 -0.463978
v 0.463978 0.150000 -0.686022
v 0.150000 0.463978 -0.686022
v 0.463978 0.686022 -0.150000
v 0.686022 0.463978 -0.150000
v 0.686022 0.150000 -0.463978
v -0.150000 -0.463978 0.686022
v -0.463978 -0.150000 0.686022
v -0.150000 -0.686022 0.463978
v -0.686022 -0.150000 0.463978
v -0.686022 -0.463978 0.150000
v -0.463978 -0.686022 0.150000
v -0.150000 0.463978 0.686022
v -0.463978 0.150000 0.686022
v -0.150000 0.686022 0.463978
v -0.686022 0.150000 0.463978
v -0.686022 0.463978 0.150000
v -0.463978 0.686022 0.150000
v 0.463978 -0.150000 0.686022
v 0.150000 -0.463978 0.686022
v 0.150000 -0.686022 0.463978
v 0.686022 -0.150000 0.463978
v 0.463978 -0.686022 0.150000
v 0.686022 -0.463978 0.150000
v 0.463978 0.150000 0.686022
v 0.150000 0.463978 0.686022
v 0.150000 0.686022 0.463978
v 0.686022 0.150000 0.463978
v 0.463978 0.686022 0.150000
v 0.686022 0.463978 0.150000
vt 0.773147 0.343294
vt 0.798147 0.368294
vt 0.773147 0.393294
vt 0.773147 0.293294
vt 0.798147 0.318294
vt 0.823147 0.293294
vt 0.848147 0.318294
vt 0.823147 0.343294
vt 0.773147 0.193294
vt 0.798147 0.218294
vt 0.773147 0.243294
vt 0.798147 0.268294
vt 0.723147 0.343294
vt 0.773147 0.393294
vt 0.748147 0.218294
vt 0.798147 0.368294
vt 0.848147 0.318294
vt 0.698147 0.318294
vt 0.773147 0.243294
vt 0.748147 0.268294
vt 0.798147 0.218294
vt 0.748147 0.318294
vt 0.773147 0.343294
vt 0.748147 0.368294
vt 0.823147 0.343294
vt 0.798147 0.318294
vt 0.723147 0.293294
vt 0.773147 0.293294
vt 0.748147 0.318294
vt 0.798147 0.268294
vt 0.723147 0.343294
vt 0.288033 0.507971
vt 0.275900 0.520105
vt 0.275900 0.507971
vt 0.288033 0.427080
vt 0.275900 0.439214
vt 0.275900 0.427080
vt 0.368924 0.427080
vt 0.356790 0.439214
vt 0.356790 0.427080
vt 0.288033 0.265299
vt 0.275900 0.277432
vt 0.275900 0.265299
vt 0.288033 0.346189
vt 0.275900 0.358323
vt 0.275900 0.346189
vt 0.160630 0.439214
vt 0.173329 0.439214
vt 0.173329 0.451913
vt 0.195009 0.451913
vt 0.182310 0.439214
vt 0.195009 0.439214
vt 0.195009 0.473592
vt 0.182310 0.460893
vt 0.195009 0.460893
vt 0.288033 0.252600
vt 0.300732 0.265299
vt 0.309713 0.252600
vt 0.322412 0.265299
vt 0.309713 0.265299
vt 0.288033 0.230920
vt 0.300732 0.243619
vt 0.288033 0.243619
vt 0.160630 0.427080
vt 0.173329 0.414381
vt 0.173329 0.427080
vt 0.195009 0.405401
vt 0.182310 0.405401
vt 0.195009 0.392702
vt 0.195009 0.427080
vt 0.182310 0.427080
vt 0.195009 0.414381
vt 0.288033 0.277432
vt 0.300732 0.277432
vt 0.288033 0.290131
vt 0.300732 0.299112
vt 0.288033 0.311811
vt 0.288033 0.299112
vt 0.322412 0.277432
vt 0.309713 0.290131
vt 0.309713 0.277432
vt 0.228822 0.439214
vt 0.241521 0.439214
vt 0.228822 0.451913
vt 0.207142 0.460893
vt 0.219841 0.460893
vt 0.207142 0.473592
vt 0.207142 0.439214
vt 0.219841 0.439214
vt 0.207142 0.451913
vt 0.300732 0.486291
vt 0.288033 0.486291
vt 0.288033 0.473592
vt 0.300732 0.507971
vt 0.288033 0.495272
vt 0.322412 0.507971
vt 0.309713 0.507971
vt 0.309713 0.495272
vt 0.228822 0.414381
vt 0.241521 0.427080
vt 0.228822 0.427080
vt 0.207142 0.414381
vt 0.219841 0.427080
vt 0.207142 0.427080
vt 0.207142 0.392702
vt 0.219841 0.405401
vt 0.207142 0.405401
vt 0.288033 0.380003
vt 0.300732 0.380003
vt 0.288033 0.392702
vt 0.309713 0.358323
vt 0.322412 0.358323
vt 0.309713 0.371022
vt 0.288033 0.358323
vt 0.300732 0.358323
vt 0.288033 0.371022
vt 0.275900 0.243619
vt 0.275900 0.230920
vt 0.275900 0.302830
vt 0.288033 0.320791
vt 0.300732 0.346189
vt 0.322412 0.346189
vt 0.309713 0.346189
vt 0.275900 0.383721
vt 0.288033 0.401682
vt 0.250502 0.427080
vt 0.232540 0.439214
vt 0.313431 0.439214
vt 0.288033 0.439214
vt 0.331392 0.427080
vt 0.275900 0.464612
vt 0.288033 0.482573
vt 0.288033 0.520105
vt 0.300732 0.520105
vt 0.309713 0.520105
vt 0.584541 0.847669
vt 0.527332 0.790459
vt 0.472668 0.959541
vt 0.527332 0.709541
vt 0.584541 0.652331
vt 0.415459 0.597669
vt 0.777331 0.709541
vt 0.834541 0.652331
vt 0.665459 0.597669
vt 0.584541 0.152332
vt 0.527332 0.040459
vt 0.415459 0.097669
vt 0.415459 0.402332
vt 0.472668 0.459541
vt 0.527332 0.290459
vt 0.277332 0.709541
vt 0.334541 0.652331
vt 0.165459 0.597669
vt 0.748147 0.368294
vt 0.823147 0.293294
vt 0.748147 0.218294
vt 0.773147 0.193294
vt 0.748147 0.268294
vt 0.698147 0.318294
vt 0.723147 0.293294
vt 0.368924 0.439214
vt 0.275900 0.252600
vt 0.288033 0.302830
vt 0.275900 0.320791
vt 0.288033 0.383721
vt 0.275900 0.401682
vt 0.250502 0.439214
vt 0.232540 0.427080
vt 0.313431 0.427080
vt 0.331392 0.439214
vt 0.288033 0.464612
vt 0.275900 0.482573
vt 0.322412 0.520105
vt 0.472669 0.790459
vt 0.415459 0.847669
vt 0.415459 0.902332
vt 0.527332 0.959541
vt 0.584541 0.902331
vt 0.584541 0.597669
vt 0.527332 0.540459
vt 0.472669 0.540459
vt 0.415459 0.652332
vt 0.472668 0.709541
vt 0.834541 0.597669
vt 0.777332 0.540459
vt 0.722669 0.540459
vt 0.665459 0.652332
vt 0.722669 0.709541
vt 0.472668 0.209541
vt 0.527332 0.209541
vt 0.584541 0.097669
vt 0.472669 0.040459
vt 0.415459 0.152332
vt 0.527332 0.459541
vt 0.584541 0.402332
vt 0.584541 0.347669
vt 0.472669 0.290459
vt 0.415459 0.347669
vt 0.334541 0.597669
vt 0.277332 0.540459
vt 0.222669 0.540459
vt 0.165459 0.652332
vt 0.222668 0.709541
vn -1.0000 0.0000 0.0000
vn 0.0000 0.0000 1.0000
vn 0.0000 1.0000 0.0000
vn 0.0000 0.0000 -1.0000
vn 1.0000 0.0000 0.0000
vn -0.5774 -0.5774 -0.5774
vn -0.5774 0.5774 -0.5774
vn 0.5774 -0.5774 -0.5774
vn 0.5774 0.5774 -0.5774
vn -0.5774 -0.5774 0.5774
vn -0.5774 0.5774 0.5774
vn 0.5774 -0.5774 0.5774
vn 0.5774 0.5774 0.5774
vn 0.0000 -1.0000 0.0000
vn 0.0000 -0.7071 -0.7071
vn -0.7071 0.0000 -0.7071
vn 0.0000 0.7071 -0.7071
vn 0.7071 0.0000 -0.7071
vn 0.7071 -0.7071 0.0000
vn 0.7071 0.7071 0.0000
vn 0.7071 0.0000 0.7071
vn 0.0000 -0.7071 0.7071
vn 0.0000 0.7071 0.7071
vn -0.7071 0.0000 0.7071
vn -0.7071 -0.7071 0.0000
vn -0.7071 0.7071 0.0000
usemtl Material
s off
f 17/1/1 16/2/1 6/3/1
f 23/4/2 22/5/2 17/1/2
f 10/6/3 12/7/3 4/8/3
f 6/9/4 5/10/4 11/11/4
f 11/11/5 10/12/5 23/4/5
f 1/13/6 2/14/6 3/15/6
f 4/16/7 5/17/7 6/9/7
f 7/18/8 8/19/8 9/20/8
f 10/6/9 11/11/9 12/21/9
f 13/22/10 14/23/10 15/24/10
f 16/25/11 17/1/11 18/26/11
f 19/27/12 20/28/12 21/29/12
f 22/5/13 23/4/13 24/30/13
f 19/27/14 21/29/14 15/31/14
f 41/32/1 26/33/1 39/34/1
f 47/35/2 38/36/2 45/37/2
f 34/38/3 40/39/3 46/40/3
f 30/41/4 32/42/4 27/43/4
f 35/44/5 44/45/5 33/46/5
f 27/47/6 50/48/6 49/49/6
f 51/50/6 52/51/6 25/52/6
f 26/53/6 54/54/6 53/55/6
f 30/41/7 55/56/7 56/57/7
f 57/58/7 29/59/7 58/60/7
f 28/61/7 59/62/7 60/63/7
f 32/64/8 62/65/8 63/66/8
f 65/67/8 66/68/8 33/69/8
f 31/70/8 61/71/8 64/72/8
f 36/73/9 69/74/9 68/75/9
f 71/76/9 35/77/9 72/78/9
f 34/79/9 70/80/9 67/81/9
f 73/82/10 38/83/10 74/84/10
f 77/85/10 76/86/10 39/87/10
f 37/88/10 75/89/10 78/90/10
f 79/91/11 80/92/11 42/93/11
f 83/94/11 41/32/11 82/95/11
f 40/96/11 84/97/11 81/98/11
f 85/99/12 45/100/12 86/101/12
f 89/102/12 87/103/12 43/104/12
f 44/105/12 88/106/12 90/107/12
f 91/108/13 92/109/13 47/110/13
f 95/111/13 46/112/13 93/113/13
f 48/114/13 96/115/13 94/116/13
f 32/64/15 50/48/15 27/47/15
f 25/52/15 61/71/15 31/70/15
f 27/43/16 55/56/16 30/41/16
f 28/61/16 54/117/16 26/118/16
f 30/41/17 69/74/17 36/73/17
f 34/79/17 58/60/17 29/59/17
f 36/73/18 62/119/18 32/42/18
f 33/46/18 72/120/18 35/44/18
f 33/69/19 90/107/19 65/67/19
f 31/70/19 89/102/19 43/104/19
f 48/114/20 71/121/20 96/115/20
f 34/122/20 95/111/20 70/123/20
f 48/114/21 88/124/21 44/45/21
f 45/37/21 91/125/21 47/35/21
f 38/36/22 86/126/22 45/37/22
f 43/104/22 75/127/22 37/88/22
f 47/35/23 79/128/23 42/129/23
f 40/39/23 93/130/23 46/40/23
f 42/129/24 74/131/24 38/36/24
f 39/34/24 82/132/24 41/32/24
f 26/53/25 77/85/25 39/87/25
f 25/52/25 78/90/25 51/50/25
f 28/133/26 83/94/26 59/134/26
f 40/96/26 57/135/26 84/97/26
f 43/104/14 25/52/14 31/70/14
f 83/136/5 82/137/5 54/138/5
f 80/139/4 79/140/4 86/141/4
f 57/142/14 58/143/14 93/144/14
f 69/145/2 55/146/2 50/147/2
f 90/148/1 88/149/1 72/150/1
f 78/151/3 75/152/3 61/153/3
f 1/154/2 15/24/2 14/23/2
f 1/154/2 14/23/2 17/1/2
f 6/3/2 2/14/2 1/154/2
f 6/3/1 1/154/1 17/1/1
f 16/2/2 4/16/2 6/3/2
f 13/22/2 21/29/2 20/28/2
f 13/22/2 20/28/2 23/4/2
f 17/1/2 14/23/2 13/22/2
f 17/1/2 13/22/2 23/4/2
f 22/5/2 18/26/2 17/1/2
f 18/26/2 22/5/2 24/155/2
f 18/26/2 24/155/2 10/6/2
f 4/8/2 16/25/2 18/26/2
f 4/8/3 18/26/3 10/6/3
f 12/7/2 5/17/2 4/8/2
f 7/156/2 3/15/2 2/157/2
f 7/156/2 2/157/2 6/9/2
f 11/11/2 8/19/2 7/156/2
f 11/11/4 7/156/4 6/9/4
f 5/10/2 12/21/2 11/11/2
f 19/158/2 9/20/2 8/19/2
f 19/158/2 8/19/2 11/11/2
f 23/4/2 20/28/2 19/158/2
f 23/4/5 19/158/5 11/11/5
f 10/12/2 24/30/2 23/4/2
f 3/159/2 7/18/2 9/160/2
f 3/159/2 9/160/2 19/27/2
f 15/31/2 1/13/2 3/159/2
f 15/31/14 3/159/14 19/27/14
f 21/29/2 13/22/2 15/31/2
f 41/32/1 28/133/1 26/33/1
f 47/35/2 42/129/2 38/36/2
f 34/38/3 29/161/3 40/39/3
f 30/41/4 36/73/4 32/42/4
f 35/44/5 48/114/5 44/45/5
f 32/64/15 63/66/15 50/48/15
f 25/52/15 52/51/15 61/71/15
f 27/43/16 49/162/16 55/56/16
f 28/61/16 60/63/16 54/117/16
f 30/41/17 56/57/17 69/74/17
f 34/79/17 67/81/17 58/60/17
f 36/73/18 68/163/18 62/119/18
f 33/46/18 66/164/18 72/120/18
f 33/69/19 44/105/19 90/107/19
f 31/70/19 64/72/19 89/102/19
f 48/114/20 35/44/20 71/121/20
f 34/122/20 46/112/20 95/111/20
f 48/114/21 94/165/21 88/124/21
f 45/37/21 85/166/21 91/125/21
f 38/36/22 73/167/22 86/126/22
f 43/104/22 87/168/22 75/127/22
f 47/35/23 92/169/23 79/128/23
f 40/39/23 81/170/23 93/130/23
f 42/129/24 80/171/24 74/131/24
f 39/34/24 76/172/24 82/132/24
f 26/53/25 53/55/25 77/85/25
f 25/52/25 37/88/25 78/90/25
f 28/133/26 41/32/26 83/94/26
f 40/96/26 29/173/26 57/135/26
f 43/104/14 37/88/14 25/52/14
f 82/137/5 76/174/5 77/175/5
f 77/175/5 53/176/5 82/137/5
f 53/176/5 54/138/5 82/137/5
f 54/138/5 60/177/5 59/178/5
f 59/178/5 83/136/5 54/138/5
f 79/140/4 92/179/4 91/180/4
f 91/180/4 85/181/4 79/140/4
f 85/181/4 86/141/4 79/140/4
f 86/141/4 73/182/4 74/183/4
f 74/183/4 80/139/4 86/141/4
f 58/143/14 67/184/14 70/185/14
f 70/185/14 95/186/14 58/143/14
f 95/186/14 93/144/14 58/143/14
f 93/144/14 81/187/14 84/188/14
f 84/188/14 57/142/14 93/144/14
f 62/189/2 68/190/2 69/145/2
f 69/145/2 56/191/2 55/146/2
f 55/146/2 49/192/2 50/147/2
f 50/147/2 63/193/2 62/189/2
f 62/189/2 69/145/2 50/147/2
f 88/149/1 94/194/1 96/195/1
f 96/195/1 71/196/1 88/149/1
f 71/196/1 72/150/1 88/149/1
f 72/150/1 66/197/1 65/198/1
f 65/198/1 90/148/1 72/150/1
f 75/152/3 87/199/3 89/200/3
f 89/200/3 64/201/3 75/152/3
f 64/201/3 61/153/3 75/152/3
f 61/153/3 52/202/3 51/203/3
f 51/203/3 78/151/3 61/153/3
