# Blender v3.5.0 OBJ File: 'PlayerBody.blend'
# www.blender.org
mtllib PlayerBody.mtl
o 体_Cube
v -0.769022 1.383391 -0.481841
v -0.769022 -1.383391 -0.645780
v 0.769022 1.383391 -0.481841
v 0.769022 -1.383391 -0.645780
v -0.769022 1.383391 0.481841
v -0.769022 -1.383391 0.645780
v 0.769022 1.383391 0.481841
v 0.769022 -1.383391 0.645780
v -0.859867 -1.383391 0.000000
v 0.859867 1.383391 0.000000
v 0.859867 -1.383391 0.000000
v -0.859867 1.383391 0.000000
v 0.000000 -1.445295 1.006092
v 0.000000 1.445295 -0.842153
v 0.000000 1.445295 0.842153
v 0.000000 -1.445295 -1.006092
v 0.000000 -1.603657 0.000000
v 0.000000 1.603657 0.000000
v 0.000000 1.603657 -0.336062
v 0.000000 -1.603657 -0.500000
v 0.000000 -1.603657 0.500000
v 0.000000 1.603657 0.336062
v 0.500000 -1.383391 1.006092
v 0.500000 1.383391 -0.842153
v 0.500000 -1.541754 0.000000
v 0.500000 1.541754 0.000000
v 0.500000 1.541754 -0.336062
v 0.500000 -1.541754 -0.500000
v 0.500000 -1.541754 0.500000
v 0.500000 1.541754 0.336062
v 0.500000 1.383391 0.842153
v 0.500000 -1.383391 -1.006092
v -0.500000 1.383391 0.842153
v -0.500000 -1.383391 -1.006092
v -0.500000 -1.383391 1.006092
v -0.500000 1.383391 -0.842153
v -0.500000 -1.541754 0.000000
v -0.500000 1.541754 0.000000
v -0.500000 1.541754 -0.336062
v -0.500000 -1.541754 -0.500000
v -0.500000 -1.541754 0.500000
v -0.500000 1.541754 0.336062
v -0.909154 0.000000 -0.751755
v 0.909154 0.000000 0.751755
v 0.909154 0.000000 -0.751755
v -0.909154 0.000000 0.751755
v -1.000000 0.000000 0.000000
v 1.000000 0.000000 0.000000
v 0.000000 0.000000 -1.218042
v 0.000000 0.000000 1.218042
v 0.500000 0.000000 1.218042
v 0.500000 0.000000 -1.218042
v -0.500000 0.000000 -1.218042
v -0.500000 0.000000 1.218042
v 0.909154 0.841406 0.751755
v -0.909154 0.841406 -0.751755
v 0.909154 0.841406 -0.751755
v -0.909154 0.841406 0.751755
v -1.000000 0.841406 0.000000
v 1.000000 0.841406 0.000000
v 0.000000 0.841406 -1.218042
v 0.000000 0.841406 1.218042
v 0.500000 0.841406 1.218042
v 0.500000 0.841406 -1.218042
v -0.500000 0.841406 -1.218042
v -0.500000 0.841406 1.218042
v -0.909154 -0.841406 -0.751755
v 0.909154 -0.841406 -0.751755
v -0.909154 -0.841406 0.751755
v -1.000000 -0.841406 0.000000
v 1.000000 -0.841406 0.000000
v 0.909154 -0.841406 0.751755
v 0.000000 -0.841406 -1.218042
v 0.000000 -0.841406 1.218042
v 0.500000 -0.841406 1.218042
v 0.500000 -0.841406 -1.218042
v -0.500000 -0.841406 -1.218042
v -0.500000 -0.841406 1.218042
vt 0.308318 0.285111
vt 0.327564 0.285111
vt 0.308318 0.304357
vt 0.250580 0.131143
vt 0.240957 0.150389
vt 0.240957 0.131143
vt 0.154351 0.285111
vt 0.173597 0.285111
vt 0.154351 0.304357
vt 0.250580 0.285111
vt 0.240957 0.304357
vt 0.240957 0.285111
vt 0.250580 0.169635
vt 0.240957 0.188881
vt 0.240957 0.169635
vt 0.115859 0.285111
vt 0.135105 0.304357
vt 0.115859 0.304357
vt 0.250580 0.323603
vt 0.240957 0.342849
vt 0.240957 0.323603
vt 0.269826 0.285111
vt 0.289072 0.304357
vt 0.269826 0.304357
vt 0.250580 0.304357
vt 0.250580 0.208127
vt 0.240957 0.208127
vt 0.135105 0.285111
vt 0.096613 0.285111
vt 0.096613 0.304357
vt 0.250580 0.362095
vt 0.240957 0.362095
vt 0.289072 0.285111
vt 0.308318 0.246619
vt 0.289072 0.265865
vt 0.289072 0.246619
vt 0.115859 0.246619
vt 0.096613 0.265865
vt 0.096613 0.246619
vt 0.154351 0.246619
vt 0.135105 0.265865
vt 0.135105 0.246619
vt 0.269826 0.246619
vt 0.250580 0.265865
vt 0.250580 0.246619
vt 0.269826 0.265865
vt 0.115859 0.265865
vt 0.240957 0.265865
vt 0.240957 0.246619
vt 0.173597 0.265865
vt 0.154351 0.265865
vt 0.250580 0.092651
vt 0.240957 0.111897
vt 0.240957 0.092651
vt 0.327564 0.265865
vt 0.308318 0.265865
vt 0.240957 0.073406
vt 0.327564 0.227373
vt 0.327564 0.246619
vt 0.173597 0.227373
vt 0.173597 0.246619
vt 0.240957 0.227373
vt 0.135105 0.227373
vt 0.115859 0.227373
vt 0.289072 0.227373
vt 0.269826 0.227373
vt 0.212088 0.111897
vt 0.192842 0.131143
vt 0.192842 0.111897
vt 0.212088 0.227373
vt 0.192842 0.246619
vt 0.192842 0.227373
vt 0.212088 0.265865
vt 0.192842 0.285111
vt 0.192842 0.265865
vt 0.212088 0.073406
vt 0.192842 0.092651
vt 0.192842 0.073406
vt 0.212088 0.092651
vt 0.212088 0.246619
vt 0.212088 0.342849
vt 0.192842 0.362095
vt 0.192842 0.342849
vt 0.212088 0.188881
vt 0.192842 0.208127
vt 0.192842 0.188881
vt 0.212088 0.323603
vt 0.192842 0.323603
vt 0.212088 0.169635
vt 0.192842 0.169635
vt 0.212088 0.285111
vt 0.192842 0.304357
vt 0.212088 0.131143
vt 0.192842 0.150389
vt 0.231334 0.111897
vt 0.231334 0.227373
vt 0.231334 0.265865
vt 0.231334 0.073406
vt 0.231334 0.092651
vt 0.231334 0.246619
vt 0.231334 0.342849
vt 0.212088 0.362095
vt 0.231334 0.188881
vt 0.212088 0.208127
vt 0.231334 0.323603
vt 0.231334 0.169635
vt 0.231334 0.285111
vt 0.212088 0.304357
vt 0.231334 0.131143
vt 0.212088 0.150389
vt 0.183220 0.111897
vt 0.173597 0.131143
vt 0.173597 0.111897
vt 0.183220 0.227373
vt 0.183220 0.265865
vt 0.183220 0.073406
vt 0.173597 0.092651
vt 0.173597 0.073406
vt 0.183220 0.342849
vt 0.173597 0.362095
vt 0.173597 0.342849
vt 0.183220 0.188881
vt 0.173597 0.208127
vt 0.173597 0.188881
vt 0.173597 0.323603
vt 0.173597 0.169635
vt 0.183220 0.304357
vt 0.173597 0.304357
vt 0.183220 0.150389
vt 0.173597 0.150389
vt 0.250580 0.150389
vt 0.250580 0.188881
vt 0.250580 0.342849
vt 0.250580 0.111897
vt 0.250580 0.073406
vt 0.250580 0.227373
vt 0.154351 0.227373
vt 0.308318 0.227373
vt 0.231334 0.362095
vt 0.231334 0.208127
vt 0.231334 0.304357
vt 0.231334 0.150389
vt 0.183220 0.131143
vt 0.183220 0.246619
vt 0.183220 0.285111
vt 0.183220 0.092651
vt 0.183220 0.362095
vt 0.183220 0.208127
vt 0.183220 0.323603
vt 0.183220 0.169635
vn 0.3714 0.8861 0.2773
vn -0.6835 0.4160 0.5998
vn 0.3714 -0.8861 -0.2773
vn 0.6835 0.4160 -0.5998
vn -0.9465 0.3017 0.1144
vn 0.4788 -0.8753 0.0674
vn 0.9465 0.3017 -0.1144
vn 0.4693 0.8786 -0.0885
vn 0.3714 0.8861 -0.2773
vn -0.9465 0.3017 -0.1144
vn 0.4028 -0.9153 0.0000
vn 0.3714 -0.8861 0.2773
vn 0.9465 0.3017 0.1144
vn 0.4028 0.9153 0.0000
vn -0.1229 0.9924 0.0000
vn -0.1173 -0.9478 0.2966
vn -0.1229 -0.9924 0.0000
vn -0.1173 0.9478 -0.2966
vn 0.0000 0.5699 -0.8217
vn -0.1173 -0.9478 -0.2966
vn 0.0000 0.5699 0.8217
vn -0.1173 0.9478 0.2966
vn 0.6835 0.4160 0.5998
vn 0.1229 0.9924 0.0000
vn 0.1173 -0.9478 0.2966
vn 0.1229 -0.9924 0.0000
vn 0.1173 0.9478 -0.2966
vn 0.1173 -0.9478 -0.2966
vn 0.1173 0.9478 0.2966
vn -0.3714 0.8861 0.2773
vn -0.3714 -0.8861 -0.2773
vn -0.6835 0.4160 -0.5998
vn -0.4788 -0.8753 0.0674
vn -0.4693 0.8786 -0.0885
vn -0.3714 0.8861 -0.2773
vn -0.4028 -0.9153 0.0000
vn -0.3714 -0.8861 0.2773
vn -0.4028 0.9153 0.0000
vn 0.0000 0.0000 1.0000
vn -0.7517 0.0000 -0.6596
vn 0.0000 0.0000 -1.0000
vn 0.7517 0.0000 0.6596
vn 0.9928 0.0000 0.1200
vn -0.9928 0.0000 -0.1200
vn 0.9928 0.0000 -0.1200
vn -0.9928 0.0000 0.1200
vn 0.7517 0.0000 -0.6596
vn -0.7517 0.0000 0.6596
vn -0.0410 -0.3309 0.9428
vn -0.7622 -0.3084 -0.5691
vn 0.0410 -0.3309 -0.9428
vn 0.7622 -0.3084 0.5691
vn 0.0410 -0.3309 0.9428
vn -0.0410 -0.3309 -0.9428
vn 0.9593 -0.2480 0.1350
vn -0.9593 -0.2480 -0.1350
vn 0.9593 -0.2480 -0.1350
vn -0.9593 -0.2480 0.1350
vn 0.7622 -0.3084 -0.5691
vn -0.7622 -0.3084 0.5691
vn -0.7152 0.4509 0.5340
vn 0.7152 0.4509 -0.5340
vn -0.9524 0.2463 0.1796
vn 0.9524 0.2463 -0.1796
vn -0.9524 0.2463 -0.1796
vn 0.4788 -0.8753 -0.0674
vn 0.9524 0.2463 0.1796
vn 0.4693 0.8786 0.0885
vn -0.0653 0.5273 -0.8472
vn 0.0653 0.5273 0.8472
vn 0.7152 0.4509 0.5340
vn 0.0653 0.5273 -0.8472
vn -0.7152 0.4509 -0.5340
vn -0.4788 -0.8753 -0.0674
vn -0.4693 0.8786 0.0885
vn -0.0653 0.5273 0.8472
vn 0.0000 -0.3642 0.9313
vn -0.7278 -0.2498 -0.6387
vn 0.0000 -0.3642 -0.9313
vn 0.7278 -0.2498 0.6387
vn 0.9560 -0.2698 0.1155
vn -0.9560 -0.2698 -0.1155
vn 0.9560 -0.2698 -0.1155
vn -0.9560 -0.2698 0.1155
vn 0.7278 -0.2498 -0.6387
vn -0.7278 -0.2498 0.6387
usemtl Material
s off
f 30/1/1 31/2/1 7/3/1
f 33/4/2 58/5/2 66/6/2
f 28/7/3 32/8/3 4/9/3
f 24/10/4 57/11/4 64/12/4
f 5/13/5 59/14/5 58/15/5
f 29/16/6 11/17/6 8/18/6
f 3/19/7 60/20/7 57/21/7
f 27/22/8 10/23/8 3/24/8
f 24/10/9 27/22/9 3/25/9
f 59/14/10 1/26/10 56/27/10
f 28/7/11 11/17/11 25/28/11
f 23/29/12 29/16/12 8/30/12
f 60/20/13 7/31/13 55/32/13
f 30/1/14 10/23/14 26/33/14
f 42/34/15 18/35/15 38/36/15
f 41/37/16 13/38/16 35/39/16
f 40/40/17 17/41/17 37/42/17
f 39/43/18 14/44/18 36/45/18
f 38/36/15 19/46/15 39/43/15
f 37/42/17 21/47/17 41/37/17
f 36/45/19 61/48/19 65/49/19
f 40/40/20 16/50/20 20/51/20
f 31/52/21 62/53/21 63/54/21
f 42/34/22 15/55/22 22/56/22
f 55/57/23 31/52/23 63/54/23
f 22/56/24 26/33/24 18/35/24
f 13/38/25 29/16/25 23/29/25
f 20/51/26 25/28/26 17/41/26
f 14/44/27 27/22/27 24/10/27
f 18/35/24 27/22/24 19/46/24
f 17/41/26 29/16/26 21/47/26
f 61/48/19 24/10/19 64/12/19
f 16/50/28 28/7/28 20/51/28
f 15/55/29 30/1/29 22/56/29
f 5/58/30 33/59/30 42/34/30
f 2/60/31 34/61/31 40/40/31
f 56/62/32 36/45/32 65/49/32
f 9/63/33 41/37/33 6/64/33
f 12/65/34 39/43/34 1/66/34
f 1/66/35 39/43/35 36/45/35
f 9/63/36 40/40/36 37/42/36
f 6/64/37 41/37/37 35/39/37
f 12/65/38 42/34/38 38/36/38
f 62/53/21 33/4/21 66/6/21
f 50/67/39 78/68/39 74/69/39
f 43/70/40 77/71/40 67/72/40
f 49/73/41 76/74/41 73/75/41
f 44/76/42 75/77/42 72/78/42
f 51/79/39 74/69/39 75/77/39
f 53/80/41 73/75/41 77/71/41
f 48/81/43 72/82/43 71/83/43
f 47/84/44 67/85/44 70/86/44
f 45/87/45 71/83/45 68/88/45
f 46/89/46 70/86/46 69/90/46
f 52/91/47 68/92/47 76/74/47
f 54/93/48 69/94/48 78/68/48
f 62/95/39 54/93/39 50/67/39
f 56/96/40 53/80/40 43/70/40
f 61/97/41 52/91/41 49/73/41
f 55/98/42 51/79/42 44/76/42
f 63/99/39 50/67/39 51/79/39
f 65/100/41 49/73/41 53/80/41
f 60/101/43 44/102/43 48/81/43
f 59/103/44 43/104/44 47/84/44
f 57/105/45 48/81/45 45/87/45
f 58/106/46 47/84/46 46/89/46
f 64/107/47 45/108/47 52/91/47
f 66/109/48 46/110/48 54/93/48
f 74/111/49 35/112/49 13/113/49
f 67/114/50 34/61/50 2/60/50
f 73/115/51 32/8/51 16/50/51
f 72/116/52 23/117/52 8/118/52
f 23/117/53 74/111/53 13/113/53
f 34/61/54 73/115/54 16/50/54
f 71/119/55 8/120/55 11/121/55
f 70/122/56 2/123/56 9/124/56
f 4/125/57 71/119/57 11/121/57
f 6/126/58 70/122/58 9/124/58
f 32/8/59 68/127/59 4/128/59
f 35/112/60 69/129/60 6/130/60
f 33/4/61 5/131/61 58/5/61
f 24/10/62 3/25/62 57/11/62
f 5/13/63 12/132/63 59/14/63
f 29/16/11 25/28/11 11/17/11
f 3/19/64 10/133/64 60/20/64
f 27/22/14 26/33/14 10/23/14
f 59/14/65 12/132/65 1/26/65
f 28/7/66 4/9/66 11/17/66
f 60/20/67 10/133/67 7/31/67
f 30/1/68 7/3/68 10/23/68
f 42/34/15 22/56/15 18/35/15
f 41/37/16 21/47/16 13/38/16
f 40/40/17 20/51/17 17/41/17
f 39/43/18 19/46/18 14/44/18
f 38/36/15 18/35/15 19/46/15
f 37/42/17 17/41/17 21/47/17
f 36/45/69 14/44/69 61/48/69
f 40/40/20 34/61/20 16/50/20
f 31/52/70 15/134/70 62/53/70
f 42/34/22 33/59/22 15/55/22
f 55/57/71 7/135/71 31/52/71
f 22/56/24 30/1/24 26/33/24
f 13/38/25 21/47/25 29/16/25
f 20/51/26 28/7/26 25/28/26
f 14/44/27 19/46/27 27/22/27
f 18/35/24 26/33/24 27/22/24
f 17/41/26 25/28/26 29/16/26
f 61/48/72 14/44/72 24/10/72
f 16/50/28 32/8/28 28/7/28
f 15/55/29 31/2/29 30/1/29
f 56/62/73 1/136/73 36/45/73
f 9/63/36 37/42/36 41/37/36
f 12/65/38 38/36/38 39/43/38
f 9/63/74 2/137/74 40/40/74
f 12/65/75 5/138/75 42/34/75
f 62/53/76 15/134/76 33/4/76
f 50/67/39 54/93/39 78/68/39
f 43/70/40 53/80/40 77/71/40
f 49/73/41 52/91/41 76/74/41
f 44/76/42 51/79/42 75/77/42
f 51/79/39 50/67/39 74/69/39
f 53/80/41 49/73/41 73/75/41
f 48/81/43 44/102/43 72/82/43
f 47/84/44 43/104/44 67/85/44
f 45/87/45 48/81/45 71/83/45
f 46/89/46 47/84/46 70/86/46
f 52/91/47 45/108/47 68/92/47
f 54/93/48 46/110/48 69/94/48
f 62/95/39 66/109/39 54/93/39
f 56/96/40 65/100/40 53/80/40
f 61/97/41 64/107/41 52/91/41
f 55/98/42 63/99/42 51/79/42
f 63/99/39 62/95/39 50/67/39
f 65/100/41 61/97/41 49/73/41
f 60/101/43 55/139/43 44/102/43
f 59/103/44 56/140/44 43/104/44
f 57/105/45 60/101/45 48/81/45
f 58/106/46 59/103/46 47/84/46
f 64/107/47 57/141/47 45/108/47
f 66/109/48 58/142/48 46/110/48
f 74/111/77 78/143/77 35/112/77
f 67/114/78 77/144/78 34/61/78
f 73/115/79 76/145/79 32/8/79
f 72/116/80 75/146/80 23/117/80
f 23/117/77 75/146/77 74/111/77
f 34/61/79 77/144/79 73/115/79
f 71/119/81 72/147/81 8/120/81
f 70/122/82 67/148/82 2/123/82
f 4/125/83 68/149/83 71/119/83
f 6/126/84 69/150/84 70/122/84
f 32/8/85 76/145/85 68/127/85
f 35/112/86 78/143/86 69/129/86
